<mxfile host="app.diagrams.net" modified="2023-04-07T12:15:39.267Z" agent="5.0 (Windows NT 10.0; Win64; x64) AppleWebKit/537.36 (KHTML, like Gecko) Chrome/111.0.0.0 Safari/537.36 Edg/111.0.1661.62" etag="6JuUnWGQkptqruqLfJ6A" version="21.0.10" type="github" pages="2">
  <diagram name="第 1 页" id="ZatWAazfDcnJ-q10tAuE">
    <mxGraphModel dx="808" dy="629" grid="0" gridSize="10" guides="1" tooltips="1" connect="1" arrows="1" fold="1" page="1" pageScale="1" pageWidth="827" pageHeight="1169" math="0" shadow="0">
      <root>
        <mxCell id="0" />
        <mxCell id="1" parent="0" />
        <mxCell id="roH79mbJbZMjJuY3P2ML-2" value="应用平台" style="rounded=0;whiteSpace=wrap;html=1;fillColor=#76608a;fontColor=#ffffff;strokeColor=#432D57;" vertex="1" parent="1">
          <mxGeometry x="560" y="310" width="120" height="60" as="geometry" />
        </mxCell>
        <mxCell id="roH79mbJbZMjJuY3P2ML-4" style="edgeStyle=orthogonalEdgeStyle;rounded=0;orthogonalLoop=1;jettySize=auto;html=1;entryX=0;entryY=0.5;entryDx=0;entryDy=0;fillColor=#6d8764;strokeColor=#97D077;strokeWidth=2;" edge="1" parent="1" source="roH79mbJbZMjJuY3P2ML-3" target="roH79mbJbZMjJuY3P2ML-2">
          <mxGeometry relative="1" as="geometry" />
        </mxCell>
        <mxCell id="roH79mbJbZMjJuY3P2ML-3" value="数据管理中心" style="whiteSpace=wrap;html=1;aspect=fixed;fillColor=#97D077;fontColor=#ffffff;strokeColor=#97D077;" vertex="1" parent="1">
          <mxGeometry x="430" y="295" width="90" height="90" as="geometry" />
        </mxCell>
        <mxCell id="roH79mbJbZMjJuY3P2ML-8" style="edgeStyle=orthogonalEdgeStyle;rounded=0;orthogonalLoop=1;jettySize=auto;html=1;exitX=1;exitY=0.5;exitDx=0;exitDy=0;entryX=0;entryY=0.5;entryDx=0;entryDy=0;strokeColor=#E3C800;strokeWidth=2;" edge="1" parent="1" source="roH79mbJbZMjJuY3P2ML-5" target="roH79mbJbZMjJuY3P2ML-7">
          <mxGeometry relative="1" as="geometry" />
        </mxCell>
        <mxCell id="roH79mbJbZMjJuY3P2ML-5" value="苏州保密机房制图" style="rounded=0;whiteSpace=wrap;html=1;fillColor=#e3c800;fontColor=#000000;strokeColor=#B09500;" vertex="1" parent="1">
          <mxGeometry x="70" y="265" width="120" height="60" as="geometry" />
        </mxCell>
        <mxCell id="roH79mbJbZMjJuY3P2ML-9" style="edgeStyle=orthogonalEdgeStyle;rounded=0;orthogonalLoop=1;jettySize=auto;html=1;exitX=1;exitY=0.5;exitDx=0;exitDy=0;strokeColor=#E3C800;strokeWidth=2;" edge="1" parent="1" source="roH79mbJbZMjJuY3P2ML-6" target="roH79mbJbZMjJuY3P2ML-7">
          <mxGeometry relative="1" as="geometry" />
        </mxCell>
        <mxCell id="roH79mbJbZMjJuY3P2ML-6" value="甲方专家制图" style="rounded=0;whiteSpace=wrap;html=1;fillColor=#e3c800;fontColor=#000000;strokeColor=#B09500;" vertex="1" parent="1">
          <mxGeometry x="70" y="355" width="120" height="60" as="geometry" />
        </mxCell>
        <mxCell id="roH79mbJbZMjJuY3P2ML-10" style="edgeStyle=orthogonalEdgeStyle;rounded=0;orthogonalLoop=1;jettySize=auto;html=1;exitX=1;exitY=0.5;exitDx=0;exitDy=0;entryX=0;entryY=0.5;entryDx=0;entryDy=0;fillColor=#e51400;strokeColor=#B20000;strokeWidth=2;" edge="1" parent="1" source="roH79mbJbZMjJuY3P2ML-7" target="roH79mbJbZMjJuY3P2ML-3">
          <mxGeometry relative="1" as="geometry" />
        </mxCell>
        <mxCell id="roH79mbJbZMjJuY3P2ML-7" value="数据梳理、转换" style="ellipse;whiteSpace=wrap;html=1;aspect=fixed;fillColor=#e51400;fontColor=#ffffff;strokeColor=#B20000;" vertex="1" parent="1">
          <mxGeometry x="300" y="295" width="90" height="90" as="geometry" />
        </mxCell>
        <mxCell id="roH79mbJbZMjJuY3P2ML-13" value="" style="group" vertex="1" connectable="0" parent="1">
          <mxGeometry x="318" y="207" width="60" height="64" as="geometry" />
        </mxCell>
        <mxCell id="roH79mbJbZMjJuY3P2ML-12" value="" style="shape=actor;whiteSpace=wrap;html=1;" vertex="1" parent="roH79mbJbZMjJuY3P2ML-13">
          <mxGeometry x="7" y="4" width="40" height="60" as="geometry" />
        </mxCell>
        <mxCell id="roH79mbJbZMjJuY3P2ML-11" value="？" style="text;html=1;strokeColor=none;fillColor=none;align=center;verticalAlign=middle;whiteSpace=wrap;rounded=0;" vertex="1" parent="roH79mbJbZMjJuY3P2ML-13">
          <mxGeometry width="60" height="30" as="geometry" />
        </mxCell>
        <mxCell id="roH79mbJbZMjJuY3P2ML-14" style="edgeStyle=orthogonalEdgeStyle;rounded=0;orthogonalLoop=1;jettySize=auto;html=1;exitX=0.5;exitY=1;exitDx=0;exitDy=0;entryX=0.5;entryY=0;entryDx=0;entryDy=0;" edge="1" parent="1" source="roH79mbJbZMjJuY3P2ML-12" target="roH79mbJbZMjJuY3P2ML-7">
          <mxGeometry relative="1" as="geometry" />
        </mxCell>
      </root>
    </mxGraphModel>
  </diagram>
  <diagram id="7qnN2hHA62HJ-LntptMV" name="第 2 页">
    <mxGraphModel dx="1408" dy="852" grid="0" gridSize="10" guides="1" tooltips="1" connect="1" arrows="1" fold="1" page="1" pageScale="1" pageWidth="1169" pageHeight="827" math="0" shadow="0">
      <root>
        <mxCell id="0" />
        <mxCell id="1" parent="0" />
        <mxCell id="C8c4WbHiIinofG_yank7-25" style="edgeStyle=orthogonalEdgeStyle;rounded=0;orthogonalLoop=1;jettySize=auto;html=1;exitX=1;exitY=0.5;exitDx=0;exitDy=0;entryX=0;entryY=0.5;entryDx=0;entryDy=0;fillColor=#dae8fc;strokeColor=#6c8ebf;" edge="1" parent="1" source="C8c4WbHiIinofG_yank7-1" target="C8c4WbHiIinofG_yank7-4">
          <mxGeometry relative="1" as="geometry" />
        </mxCell>
        <mxCell id="C8c4WbHiIinofG_yank7-39" style="edgeStyle=orthogonalEdgeStyle;rounded=0;orthogonalLoop=1;jettySize=auto;html=1;exitX=0.75;exitY=1;exitDx=0;exitDy=0;entryX=0.5;entryY=0;entryDx=0;entryDy=0;dashed=1;strokeColor=#7EA6E0;strokeWidth=2;" edge="1" parent="1" source="C8c4WbHiIinofG_yank7-1" target="C8c4WbHiIinofG_yank7-10">
          <mxGeometry relative="1" as="geometry">
            <Array as="points">
              <mxPoint x="278" y="248" />
              <mxPoint x="434" y="248" />
            </Array>
          </mxGeometry>
        </mxCell>
        <mxCell id="C8c4WbHiIinofG_yank7-47" style="edgeStyle=orthogonalEdgeStyle;rounded=0;orthogonalLoop=1;jettySize=auto;html=1;exitX=0.75;exitY=1;exitDx=0;exitDy=0;strokeWidth=2;dashed=1;strokeColor=#7EA6E0;" edge="1" parent="1" source="C8c4WbHiIinofG_yank7-1" target="C8c4WbHiIinofG_yank7-24">
          <mxGeometry relative="1" as="geometry">
            <Array as="points">
              <mxPoint x="278" y="248" />
              <mxPoint x="957" y="248" />
            </Array>
          </mxGeometry>
        </mxCell>
        <mxCell id="C8c4WbHiIinofG_yank7-1" value="三普样点校核" style="rounded=0;whiteSpace=wrap;html=1;fillColor=#dae8fc;strokeColor=#6c8ebf;" vertex="1" parent="1">
          <mxGeometry x="188" y="145" width="120" height="60" as="geometry" />
        </mxCell>
        <mxCell id="C8c4WbHiIinofG_yank7-21" style="edgeStyle=orthogonalEdgeStyle;rounded=0;orthogonalLoop=1;jettySize=auto;html=1;exitX=1;exitY=0.5;exitDx=0;exitDy=0;entryX=0;entryY=0.5;entryDx=0;entryDy=0;fillColor=#dae8fc;strokeColor=#6c8ebf;" edge="1" parent="1" source="C8c4WbHiIinofG_yank7-4" target="C8c4WbHiIinofG_yank7-18">
          <mxGeometry relative="1" as="geometry" />
        </mxCell>
        <mxCell id="C8c4WbHiIinofG_yank7-4" value="三普数据库应用" style="rounded=0;whiteSpace=wrap;html=1;fillColor=#dae8fc;strokeColor=#6c8ebf;" vertex="1" parent="1">
          <mxGeometry x="404" y="145" width="120" height="60" as="geometry" />
        </mxCell>
        <mxCell id="C8c4WbHiIinofG_yank7-22" style="edgeStyle=orthogonalEdgeStyle;rounded=0;orthogonalLoop=1;jettySize=auto;html=1;exitX=1;exitY=0.5;exitDx=0;exitDy=0;entryX=0;entryY=0.5;entryDx=0;entryDy=0;fillColor=#f8cecc;strokeColor=#b85450;" edge="1" parent="1" source="C8c4WbHiIinofG_yank7-5" target="C8c4WbHiIinofG_yank7-10">
          <mxGeometry relative="1" as="geometry" />
        </mxCell>
        <mxCell id="C8c4WbHiIinofG_yank7-37" style="edgeStyle=orthogonalEdgeStyle;rounded=0;orthogonalLoop=1;jettySize=auto;html=1;exitX=0.5;exitY=0;exitDx=0;exitDy=0;entryX=0.5;entryY=1;entryDx=0;entryDy=0;dashed=1;strokeColor=#7EA6E0;strokeWidth=2;" edge="1" parent="1" source="C8c4WbHiIinofG_yank7-5" target="C8c4WbHiIinofG_yank7-1">
          <mxGeometry relative="1" as="geometry" />
        </mxCell>
        <mxCell id="C8c4WbHiIinofG_yank7-40" style="edgeStyle=orthogonalEdgeStyle;rounded=0;orthogonalLoop=1;jettySize=auto;html=1;exitX=0.5;exitY=1;exitDx=0;exitDy=0;dashed=1;strokeColor=#7EA6E0;strokeWidth=2;" edge="1" parent="1" source="C8c4WbHiIinofG_yank7-5" target="C8c4WbHiIinofG_yank7-13">
          <mxGeometry relative="1" as="geometry" />
        </mxCell>
        <mxCell id="C8c4WbHiIinofG_yank7-5" value="agri-system1.0" style="shape=process;whiteSpace=wrap;html=1;backgroundOutline=1;fillColor=#f8cecc;strokeColor=#b85450;" vertex="1" parent="1">
          <mxGeometry x="189" y="299" width="118" height="60" as="geometry" />
        </mxCell>
        <mxCell id="C8c4WbHiIinofG_yank7-23" style="edgeStyle=orthogonalEdgeStyle;rounded=0;orthogonalLoop=1;jettySize=auto;html=1;exitX=1;exitY=0.5;exitDx=0;exitDy=0;entryX=0;entryY=0.5;entryDx=0;entryDy=0;fillColor=#f8cecc;strokeColor=#b85450;" edge="1" parent="1" source="C8c4WbHiIinofG_yank7-10" target="C8c4WbHiIinofG_yank7-17">
          <mxGeometry relative="1" as="geometry" />
        </mxCell>
        <mxCell id="C8c4WbHiIinofG_yank7-45" style="edgeStyle=orthogonalEdgeStyle;rounded=0;orthogonalLoop=1;jettySize=auto;html=1;exitX=0.75;exitY=0;exitDx=0;exitDy=0;entryX=0.5;entryY=1;entryDx=0;entryDy=0;dashed=1;strokeWidth=2;strokeColor=#7EA6E0;" edge="1" parent="1" source="C8c4WbHiIinofG_yank7-10" target="C8c4WbHiIinofG_yank7-4">
          <mxGeometry relative="1" as="geometry" />
        </mxCell>
        <mxCell id="C8c4WbHiIinofG_yank7-10" value="agri-map 1.0" style="shape=process;whiteSpace=wrap;html=1;backgroundOutline=1;fillColor=#f8cecc;strokeColor=#b85450;" vertex="1" parent="1">
          <mxGeometry x="374" y="299" width="120" height="60" as="geometry" />
        </mxCell>
        <mxCell id="C8c4WbHiIinofG_yank7-26" style="edgeStyle=orthogonalEdgeStyle;rounded=0;orthogonalLoop=1;jettySize=auto;html=1;exitX=1;exitY=0.5;exitDx=0;exitDy=0;entryX=0;entryY=0.5;entryDx=0;entryDy=0;fillColor=#d5e8d4;strokeColor=#82b366;" edge="1" parent="1" source="C8c4WbHiIinofG_yank7-13" target="C8c4WbHiIinofG_yank7-14">
          <mxGeometry relative="1" as="geometry" />
        </mxCell>
        <mxCell id="C8c4WbHiIinofG_yank7-13" value="AgriData" style="rounded=1;whiteSpace=wrap;html=1;fillColor=#d5e8d4;strokeColor=#82b366;" vertex="1" parent="1">
          <mxGeometry x="188" y="434" width="120" height="60" as="geometry" />
        </mxCell>
        <mxCell id="C8c4WbHiIinofG_yank7-43" style="edgeStyle=orthogonalEdgeStyle;rounded=0;orthogonalLoop=1;jettySize=auto;html=1;exitX=1;exitY=0.5;exitDx=0;exitDy=0;entryX=0.5;entryY=1;entryDx=0;entryDy=0;strokeColor=#7EA6E0;dashed=1;strokeWidth=2;" edge="1" parent="1" source="C8c4WbHiIinofG_yank7-14" target="C8c4WbHiIinofG_yank7-28">
          <mxGeometry relative="1" as="geometry" />
        </mxCell>
        <mxCell id="C8c4WbHiIinofG_yank7-44" style="edgeStyle=orthogonalEdgeStyle;rounded=0;orthogonalLoop=1;jettySize=auto;html=1;exitX=1;exitY=0.5;exitDx=0;exitDy=0;entryX=0.5;entryY=1;entryDx=0;entryDy=0;dashed=1;strokeWidth=2;strokeColor=#7EA6E0;" edge="1" parent="1" source="C8c4WbHiIinofG_yank7-14" target="C8c4WbHiIinofG_yank7-24">
          <mxGeometry relative="1" as="geometry" />
        </mxCell>
        <mxCell id="C8c4WbHiIinofG_yank7-58" style="edgeStyle=orthogonalEdgeStyle;rounded=0;orthogonalLoop=1;jettySize=auto;html=1;exitX=0.5;exitY=0;exitDx=0;exitDy=0;strokeWidth=2;dashed=1;strokeColor=#7EA6E0;" edge="1" parent="1" source="C8c4WbHiIinofG_yank7-14" target="C8c4WbHiIinofG_yank7-17">
          <mxGeometry relative="1" as="geometry">
            <Array as="points">
              <mxPoint x="453" y="401" />
              <mxPoint x="631" y="401" />
            </Array>
          </mxGeometry>
        </mxCell>
        <mxCell id="C8c4WbHiIinofG_yank7-14" value="AgriMapServer" style="rounded=1;whiteSpace=wrap;html=1;fillColor=#d5e8d4;strokeColor=#82b366;" vertex="1" parent="1">
          <mxGeometry x="393" y="434" width="120" height="60" as="geometry" />
        </mxCell>
        <mxCell id="C8c4WbHiIinofG_yank7-30" style="edgeStyle=orthogonalEdgeStyle;rounded=0;orthogonalLoop=1;jettySize=auto;html=1;exitX=1;exitY=0.5;exitDx=0;exitDy=0;entryX=0;entryY=0.5;entryDx=0;entryDy=0;fillColor=#f8cecc;strokeColor=#b85450;" edge="1" parent="1" source="C8c4WbHiIinofG_yank7-17" target="C8c4WbHiIinofG_yank7-28">
          <mxGeometry relative="1" as="geometry" />
        </mxCell>
        <mxCell id="C8c4WbHiIinofG_yank7-17" value="create-agriview1.0" style="shape=process;whiteSpace=wrap;html=1;backgroundOutline=1;fillColor=#f8cecc;strokeColor=#b85450;" vertex="1" parent="1">
          <mxGeometry x="560" y="299" width="141" height="60" as="geometry" />
        </mxCell>
        <mxCell id="C8c4WbHiIinofG_yank7-18" value="贵州三农大数据" style="rounded=0;whiteSpace=wrap;html=1;fillColor=#dae8fc;strokeColor=#6c8ebf;" vertex="1" parent="1">
          <mxGeometry x="634" y="145" width="120" height="60" as="geometry" />
        </mxCell>
        <mxCell id="C8c4WbHiIinofG_yank7-24" value="agri-system2.0" style="shape=process;whiteSpace=wrap;html=1;backgroundOutline=1;fillColor=#f8cecc;strokeColor=#b85450;" vertex="1" parent="1">
          <mxGeometry x="898" y="299" width="118" height="60" as="geometry" />
        </mxCell>
        <mxCell id="C8c4WbHiIinofG_yank7-31" style="edgeStyle=orthogonalEdgeStyle;rounded=0;orthogonalLoop=1;jettySize=auto;html=1;exitX=1;exitY=0.5;exitDx=0;exitDy=0;entryX=0;entryY=0.5;entryDx=0;entryDy=0;fillColor=#f8cecc;strokeColor=#b85450;" edge="1" parent="1" source="C8c4WbHiIinofG_yank7-28" target="C8c4WbHiIinofG_yank7-24">
          <mxGeometry relative="1" as="geometry" />
        </mxCell>
        <mxCell id="C8c4WbHiIinofG_yank7-28" value="agri-map 2.0" style="shape=process;whiteSpace=wrap;html=1;backgroundOutline=1;fillColor=#f8cecc;strokeColor=#b85450;" vertex="1" parent="1">
          <mxGeometry x="740" y="299" width="120" height="60" as="geometry" />
        </mxCell>
        <mxCell id="C8c4WbHiIinofG_yank7-32" value="" style="endArrow=none;dashed=1;html=1;rounded=0;" edge="1" parent="1">
          <mxGeometry width="50" height="50" relative="1" as="geometry">
            <mxPoint x="99" y="270" as="sourcePoint" />
            <mxPoint x="1149" y="267" as="targetPoint" />
          </mxGeometry>
        </mxCell>
        <mxCell id="C8c4WbHiIinofG_yank7-33" value="" style="endArrow=none;dashed=1;html=1;rounded=0;" edge="1" parent="1">
          <mxGeometry width="50" height="50" relative="1" as="geometry">
            <mxPoint x="102" y="415" as="sourcePoint" />
            <mxPoint x="1158" y="412" as="targetPoint" />
          </mxGeometry>
        </mxCell>
        <mxCell id="C8c4WbHiIinofG_yank7-34" value="项目开发" style="text;html=1;strokeColor=none;fillColor=none;align=center;verticalAlign=middle;whiteSpace=wrap;rounded=0;fontStyle=1" vertex="1" parent="1">
          <mxGeometry x="90" y="172" width="60" height="30" as="geometry" />
        </mxCell>
        <mxCell id="C8c4WbHiIinofG_yank7-35" value="组件开发" style="text;html=1;strokeColor=none;fillColor=none;align=center;verticalAlign=middle;whiteSpace=wrap;rounded=0;fontStyle=1" vertex="1" parent="1">
          <mxGeometry x="82.5" y="316" width="75" height="30" as="geometry" />
        </mxCell>
        <mxCell id="C8c4WbHiIinofG_yank7-36" value="产品开发" style="text;html=1;strokeColor=none;fillColor=none;align=center;verticalAlign=middle;whiteSpace=wrap;rounded=0;fontStyle=1" vertex="1" parent="1">
          <mxGeometry x="82.5" y="449" width="75" height="30" as="geometry" />
        </mxCell>
        <mxCell id="C8c4WbHiIinofG_yank7-48" value="2022-03" style="text;html=1;strokeColor=none;fillColor=none;align=center;verticalAlign=middle;whiteSpace=wrap;rounded=0;labelBackgroundColor=default;fontStyle=1;fontColor=#4D4D4D;" vertex="1" parent="1">
          <mxGeometry x="214" y="209" width="60" height="30" as="geometry" />
        </mxCell>
        <mxCell id="C8c4WbHiIinofG_yank7-49" value="2022-06" style="text;html=1;strokeColor=none;fillColor=none;align=center;verticalAlign=middle;whiteSpace=wrap;rounded=0;labelBackgroundColor=default;fontStyle=1;fontColor=#4D4D4D;" vertex="1" parent="1">
          <mxGeometry x="434" y="209" width="60" height="30" as="geometry" />
        </mxCell>
        <mxCell id="C8c4WbHiIinofG_yank7-50" value="2022-03" style="text;html=1;strokeColor=none;fillColor=none;align=center;verticalAlign=middle;whiteSpace=wrap;rounded=0;labelBackgroundColor=default;fontStyle=1;fontColor=#4D4D4D;" vertex="1" parent="1">
          <mxGeometry x="218" y="369" width="60" height="30" as="geometry" />
        </mxCell>
        <mxCell id="C8c4WbHiIinofG_yank7-51" value="2022-05" style="text;html=1;strokeColor=none;fillColor=none;align=center;verticalAlign=middle;whiteSpace=wrap;rounded=0;labelBackgroundColor=default;fontStyle=1;fontColor=#4D4D4D;" vertex="1" parent="1">
          <mxGeometry x="406" y="369" width="60" height="30" as="geometry" />
        </mxCell>
        <mxCell id="C8c4WbHiIinofG_yank7-52" value="2023-02" style="text;html=1;strokeColor=none;fillColor=none;align=center;verticalAlign=middle;whiteSpace=wrap;rounded=0;labelBackgroundColor=default;fontStyle=1;fontColor=#4D4D4D;" vertex="1" parent="1">
          <mxGeometry x="600.5" y="369" width="60" height="30" as="geometry" />
        </mxCell>
        <mxCell id="C8c4WbHiIinofG_yank7-53" value="2023-04" style="text;html=1;strokeColor=none;fillColor=none;align=center;verticalAlign=middle;whiteSpace=wrap;rounded=0;labelBackgroundColor=default;fontStyle=1;fontColor=#4D4D4D;" vertex="1" parent="1">
          <mxGeometry x="770" y="369" width="60" height="30" as="geometry" />
        </mxCell>
        <mxCell id="C8c4WbHiIinofG_yank7-54" value="2023-05" style="text;html=1;strokeColor=none;fillColor=none;align=center;verticalAlign=middle;whiteSpace=wrap;rounded=0;labelBackgroundColor=default;fontStyle=1;fontColor=#4D4D4D;" vertex="1" parent="1">
          <mxGeometry x="927" y="369" width="60" height="30" as="geometry" />
        </mxCell>
        <mxCell id="C8c4WbHiIinofG_yank7-55" value="2022-08" style="text;html=1;strokeColor=none;fillColor=none;align=center;verticalAlign=middle;whiteSpace=wrap;rounded=0;labelBackgroundColor=default;fontStyle=1;fontColor=#4D4D4D;" vertex="1" parent="1">
          <mxGeometry x="218" y="494" width="60" height="30" as="geometry" />
        </mxCell>
        <mxCell id="C8c4WbHiIinofG_yank7-56" value="2023-01" style="text;html=1;strokeColor=none;fillColor=none;align=center;verticalAlign=middle;whiteSpace=wrap;rounded=0;labelBackgroundColor=default;fontStyle=1;fontColor=#4D4D4D;" vertex="1" parent="1">
          <mxGeometry x="426" y="494" width="60" height="30" as="geometry" />
        </mxCell>
        <mxCell id="C8c4WbHiIinofG_yank7-57" value="2023-01" style="text;html=1;strokeColor=none;fillColor=none;align=center;verticalAlign=middle;whiteSpace=wrap;rounded=0;labelBackgroundColor=default;fontStyle=1;fontColor=#4D4D4D;" vertex="1" parent="1">
          <mxGeometry x="667" y="209" width="60" height="30" as="geometry" />
        </mxCell>
      </root>
    </mxGraphModel>
  </diagram>
</mxfile>
